<svg xmlns="http://www.w3.org/2000/svg" viewBox="0 0 64 64">
  <rect width="64" height="64" rx="12" fill="#111827"/>
  <path d="M16 42V18h17.5c8.2 0 13.5 4.7 13.5 12s-5.3 12-13.5 12H24v8h-8zm8-16v10h9.1c3.8 0 6.1-1.9 6.1-5s-2.3-5-6.1-5H24z" fill="#4f7cff"/>
  <path d="M39 46c4.7 0 7.4-1.7 7.4-4.2 0-2.1-1.6-3.3-6.1-4.1l-4.2-.8c-6.4-1.2-9.5-4.1-9.5-8.8 0-5.8 5.2-9.7 13.1-9.7 4.9 0 9.2 1.2 12.2 3.3l-3.2 6.1c-2.4-1.7-5.6-2.7-9.1-2.7-3.4 0-5.5 1.3-5.5 3.5 0 1.9 1.5 3 5.8 3.8l4.4.8c6.7 1.2 9.7 4 9.7 8.7 0 6.2-5.5 10.3-14.7 10.3-5.7 0-10.7-1.4-14-3.8l3.3-6.3c2.8 2.3 6.5 3.9 10.4 3.9z" fill="#10b981"/>
</svg>
